ply
format ascii 1.0
comment Generated by PDAL
element vertex 170
property uint8 classification
property uint8 edgeofflightline
property float64 gpstime
property uint16 intensity
property uint8 numberofreturns
property uint32 originid
property uint16 pointsourceid
property uint8 returnnumber
property float32 scananglerank
property uint8 scandirectionflag
property uint8 userdata
property float64 x
property float64 y
property float64 z
end_header
1 0 51758.3 47 1 16762 11007 1 11 0 32 -93.756 41.918 310.15
1 0 51758.3 49 1 16762 11007 1 11 0 32 -93.756 41.918 310.09
2 0 51758.3 45 1 16762 11007 1 11 0 32 -93.756 41.918 310.11
2 0 51758.3 2 1 16762 11007 1 11 1 32 -93.756 41.918 310.14
1 0 51758.4 4 1 16762 11007 1 11 1 32 -93.756 41.9181 310.19
2 0 51758.4 45 1 16762 11007 1 11 0 32 -93.7561 41.9181 310.13
2 0 51758.4 54 1 16762 11007 1 11 0 32 -93.756 41.9181 310.11
1 0 51758.4 4 1 16762 11007 1 11 1 32 -93.7561 41.9181 310.38
1 0 51758.4 52 1 16762 11007 1 11 0 32 -93.756 41.9181 310.14
1 0 51758.4 4 1 16762 11007 1 11 1 32 -93.7561 41.9181 310.25
2 0 51758.5 52 1 16762 11007 1 11 0 32 -93.7561 41.9181 310.1
1 0 51758.5 4 1 16762 11007 1 11 1 32 -93.7561 41.9181 310.32
1 0 51758.5 7 1 16762 11007 1 11 1 32 -93.7561 41.9181 310.33
1 0 51758.5 4 1 16762 11007 1 11 1 32 -93.7561 41.9181 310.28
1 0 51758.5 7 1 16762 11007 1 11 1 32 -93.7561 41.9181 310.27
1 0 51758.5 4 1 16762 11007 1 11 1 32 -93.7561 41.9181 310.2
2 0 51758.5 4 1 16762 11007 1 11 1 32 -93.7561 41.9181 310.08
2 0 51758.5 4 1 16762 11007 1 11 1 32 -93.7561 41.9181 310.2
2 0 51758.5 9 1 16762 11007 1 11 1 32 -93.7561 41.9181 310.21
1 0 51758.5 9 1 16762 11007 1 11 1 32 -93.7561 41.9181 310.28
2 0 51758.5 11 1 16762 11007 1 11 1 32 -93.7562 41.9181 310.23
1 0 51758.5 77 1 16762 11007 1 11 0 32 -93.7562 41.9182 310.35
2 0 51758.5 52 1 16762 11007 1 11 0 32 -93.7561 41.9182 310.25
1 0 51758.5 52 1 16762 11007 1 11 0 32 -93.7561 41.9182 310.3
2 0 51758.6 7 1 16762 11007 1 11 1 32 -93.7561 41.9182 310.31
1 0 51758.6 7 1 16762 11007 1 11 1 32 -93.7561 41.9182 310.46
2 0 51758.6 11 1 16762 11007 1 11 1 32 -93.7562 41.9182 310.18
2 0 51758.6 11 1 16762 11007 1 11 1 32 -93.7562 41.9182 310.23
2 0 51758.6 66 1 16762 11007 1 11 0 32 -93.7562 41.9182 310.43
2 0 51758.6 77 1 16762 11007 1 11 0 32 -93.7562 41.9182 310.47
1 0 51758.6 85 1 16762 11007 1 11 0 32 -93.7562 41.9182 310.32
2 0 51758.6 77 1 16762 11007 1 11 0 32 -93.7561 41.9182 310.39
2 0 51758.6 7 1 16762 11007 1 11 1 32 -93.7561 41.9182 310.27
2 0 51758.6 9 1 16762 11007 1 11 1 32 -93.7562 41.9182 310.28
2 0 51758.6 89 1 16762 11007 1 11 0 32 -93.7562 41.9182 310.36
2 0 51758.6 87 1 16762 11007 1 11 0 32 -93.7561 41.9182 310.32
2 0 51758.6 70 1 16762 11007 1 11 0 32 -93.7561 41.9182 310.27
1 0 51758.6 7 1 16762 11007 1 11 1 32 -93.7562 41.9182 310.46
1 0 51758.6 80 1 16762 11007 1 11 0 32 -93.7562 41.9182 310.54
12 0 53290.4 56 1 16762 11008 1 14 0 32 -93.7561 41.9182 310.2
12 0 53290.4 74 1 16762 11008 1 14 0 32 -93.7561 41.9182 310.32
12 0 53290.4 79 1 16762 11008 1 14 0 32 -93.7562 41.9182 310.43
12 0 53290.4 5 1 16762 11008 1 14 1 32 -93.7562 41.9182 310.5
12 0 53290.4 56 1 16762 11008 1 14 0 32 -93.7561 41.9182 310.19
12 0 53290.4 59 1 16762 11008 1 14 0 32 -93.7561 41.9182 310.42
12 0 53290.4 84 1 16762 11008 1 14 0 32 -93.7562 41.9182 310.28
12 0 53290.4 79 1 16762 11008 1 14 0 32 -93.7562 41.9182 310.35
12 0 53290.4 61 1 16762 11008 1 14 0 32 -93.7562 41.9182 310.42
12 0 53290.5 58 1 16762 11008 1 13 0 32 -93.7561 41.9181 310.14
12 0 53290.5 61 1 16762 11008 1 14 0 32 -93.7561 41.9181 310.23
12 0 53290.5 71 1 16762 11008 1 14 0 32 -93.7561 41.9181 310.22
12 0 53290.5 77 1 16762 11008 1 14 0 32 -93.7562 41.9182 310.25
12 0 53290.5 71 1 16762 11008 1 14 0 32 -93.7562 41.9182 310.26
12 0 53290.5 7 1 16762 11008 1 14 1 32 -93.7561 41.9181 310.29
12 0 53290.5 5 1 16762 11008 1 14 1 32 -93.7561 41.9181 310.21
12 0 53290.5 2 1 16762 11008 1 14 1 32 -93.7561 41.9181 310.25
12 0 53290.5 2 1 16762 11008 1 13 1 32 -93.7561 41.9181 310.15
12 0 53290.5 51 1 16762 11008 1 14 0 32 -93.7561 41.9181 310.2
12 0 53290.5 53 1 16762 11008 1 14 0 32 -93.7561 41.9181 310.18
12 0 53290.5 5 1 16762 11008 1 14 1 32 -93.7561 41.9181 310.27
12 0 53290.5 2 1 16762 11008 1 14 1 32 -93.7561 41.9181 310.23
12 0 53290.5 2 1 16762 11008 1 13 1 32 -93.7561 41.9181 310.13
12 0 53290.5 51 1 16762 11008 1 13 0 32 -93.7561 41.9181 310.12
12 0 53290.5 51 1 16762 11008 1 13 0 32 -93.7561 41.9181 310.17
12 0 53290.5 53 1 16762 11008 1 14 0 32 -93.7561 41.9181 310.14
12 0 53290.5 58 1 16762 11008 1 14 0 32 -93.7561 41.9181 310.13
12 0 53290.5 2 1 16762 11008 1 14 1 32 -93.7561 41.9181 310.26
12 0 53290.5 5 1 16762 11008 1 14 1 32 -93.7561 41.9181 310.24
12 0 53290.5 2 1 16762 11008 1 13 1 32 -93.7561 41.9181 309.92
12 0 53290.6 2 1 16762 11008 1 13 1 32 -93.756 41.9181 310.3
12 0 53290.6 46 1 16762 11008 1 13 0 32 -93.756 41.9181 310.07
12 0 53290.6 2 1 16762 11008 1 13 1 32 -93.756 41.9181 310.26
12 0 53290.6 2 1 16762 11008 1 13 1 32 -93.756 41.918 310.18
2 0 51758.3 4 1 16762 11007 1 11 1 32 -93.756 41.918 310.02
1 0 51758.4 52 1 16762 11007 1 11 0 32 -93.756 41.9181 310.17
2 0 51758.4 42 1 16762 11007 1 11 0 32 -93.756 41.9181 310.03
2 0 51758.4 52 1 16762 11007 1 11 0 32 -93.7561 41.9181 310.15
2 0 51758.4 2 1 16762 11007 1 11 1 32 -93.756 41.9181 310.08
1 0 51758.4 4 1 16762 11007 1 11 1 32 -93.7561 41.9181 310.28
2 0 51758.4 52 1 16762 11007 1 11 0 32 -93.7561 41.9181 310.16
1 0 51758.4 49 1 16762 11007 1 11 0 32 -93.7561 41.9181 310.19
1 0 51758.4 7 1 16762 11007 1 11 1 32 -93.7561 41.9181 310.26
1 0 51758.4 4 1 16762 11007 1 11 1 32 -93.7561 41.9181 310.24
1 0 51758.4 4 1 16762 11007 1 11 1 32 -93.7561 41.9181 310.27
2 0 51758.5 56 1 16762 11007 1 11 0 32 -93.7561 41.9181 310.18
2 0 51758.5 49 1 16762 11007 1 11 0 32 -93.7561 41.9181 310.12
2 0 51758.5 4 1 16762 11007 1 11 1 32 -93.7561 41.9181 310.2
2 0 51758.5 70 1 16762 11007 1 11 0 32 -93.7561 41.9181 310.25
2 0 51758.5 56 1 16762 11007 1 11 0 32 -93.7561 41.9181 310.17
1 0 51758.5 54 1 16762 11007 1 11 0 32 -93.7561 41.9181 310.18
2 0 51758.5 56 1 16762 11007 1 11 0 32 -93.7561 41.9181 310.17
1 0 51758.5 4 1 16762 11007 1 11 1 32 -93.7561 41.9181 310.25
1 0 51758.5 4 1 16762 11007 1 11 1 32 -93.7561 41.9181 310.3
2 0 51758.5 73 1 16762 11007 1 11 0 32 -93.7562 41.9181 310.25
2 0 51758.5 89 1 16762 11007 1 11 0 32 -93.7561 41.9181 310.22
2 0 51758.5 59 1 16762 11007 1 11 0 32 -93.7561 41.9181 310.18
1 0 51758.5 56 1 16762 11007 1 11 0 32 -93.7561 41.9181 310.21
2 0 51758.5 7 1 16762 11007 1 11 1 32 -93.7561 41.9181 310.16
1 0 51758.5 92 1 16762 11007 1 11 0 32 -93.7561 41.9182 310.26
2 0 51758.5 61 1 16762 11007 1 11 0 32 -93.7561 41.9182 310.22
2 0 51758.5 59 1 16762 11007 1 11 0 32 -93.7561 41.9182 310.29
1 0 51758.6 4 1 16762 11007 1 11 1 32 -93.7561 41.9182 310.3
2 0 51758.6 9 1 16762 11007 1 11 1 32 -93.7562 41.9182 310.19
1 0 51758.6 77 1 16762 11007 1 11 0 32 -93.7562 41.9182 310.5
2 0 51758.6 9 1 16762 11007 1 11 1 32 -93.7562 41.9182 310.34
2 0 51758.6 7 1 16762 11007 1 10 1 32 -93.7562 41.9182 310.43
2 0 51758.6 66 1 16762 11007 1 11 0 32 -93.7562 41.9182 310.32
12 0 53290.4 5 1 16762 11008 1 14 1 32 -93.7562 41.9182 310.28
12 0 53290.4 66 1 16762 11008 1 14 0 32 -93.7562 41.9182 310.32
12 0 53290.4 10 1 16762 11008 1 14 1 32 -93.7562 41.9182 310.34
12 0 53290.4 5 1 16762 11008 1 14 1 32 -93.7561 41.9182 310.42
12 0 53290.4 7 1 16762 11008 1 14 1 32 -93.7561 41.9182 310.21
12 0 53290.4 53 1 16762 11008 1 14 0 32 -93.7561 41.9182 310.19
12 0 53290.4 74 1 16762 11008 1 14 0 32 -93.7562 41.9182 310.53
12 0 53290.4 7 1 16762 11008 1 14 1 32 -93.7562 41.9182 310.51
12 0 53290.4 7 1 16762 11008 1 14 1 32 -93.7562 41.9182 310.45
12 0 53290.4 5 1 16762 11008 1 14 1 32 -93.7561 41.9182 310.28
12 0 53290.5 51 1 16762 11008 1 14 0 32 -93.7561 41.9181 310.13
12 0 53290.5 56 1 16762 11008 1 14 0 32 -93.7561 41.9181 310.21
12 0 53290.5 79 1 16762 11008 1 14 0 32 -93.7562 41.9182 310.36
12 0 53290.5 7 1 16762 11008 1 14 1 32 -93.7562 41.9181 310.35
12 0 53290.5 51 1 16762 11008 1 13 0 32 -93.7561 41.9181 310.15
12 0 53290.5 51 1 16762 11008 1 13 0 32 -93.7561 41.9181 310.13
12 0 53290.5 53 1 16762 11008 1 14 0 32 -93.7561 41.9181 310.12
12 0 53290.5 61 1 16762 11008 1 14 0 32 -93.7561 41.9181 310.18
12 0 53290.5 10 1 16762 11008 1 14 1 32 -93.7561 41.9181 310.21
12 0 53290.5 5 1 16762 11008 1 14 1 32 -93.7561 41.9181 310.07
12 0 53290.5 5 1 16762 11008 1 14 1 32 -93.7561 41.9181 310.22
12 0 53290.5 5 1 16762 11008 1 13 1 32 -93.7561 41.9181 310.04
12 0 53290.5 53 1 16762 11008 1 14 0 32 -93.7561 41.9181 310.05
12 0 53290.5 59 1 16762 11008 1 14 0 32 -93.7561 41.9181 310.14
12 0 53290.5 5 1 16762 11008 1 14 1 32 -93.7561 41.9181 310.12
12 0 53290.5 2 1 16762 11008 1 13 1 32 -93.7561 41.9181 310.12
12 0 53290.5 46 1 16762 11008 1 13 0 32 -93.756 41.9181 310.06
12 0 53290.5 46 1 16762 11008 1 13 0 32 -93.756 41.9181 310.09
12 0 53290.5 48 1 16762 11008 1 13 0 32 -93.7561 41.9181 310.15
12 0 53290.5 53 1 16762 11008 1 14 0 32 -93.7561 41.9181 310.15
12 0 53290.5 53 1 16762 11008 1 14 0 32 -93.7561 41.9181 310.08
12 0 53290.6 5 1 16762 11008 1 14 1 32 -93.7561 41.9181 310.25
12 0 53290.6 2 1 16762 11008 1 14 1 32 -93.7561 41.9181 310.05
12 0 53290.6 43 1 16762 11008 1 13 0 32 -93.756 41.918 310.18
12 0 53290.6 2 1 16762 11008 1 13 1 32 -93.756 41.918 310.24
1 0 51758.4 2 1 16762 11007 1 11 1 32 -93.756 41.9181 310.25
2 0 51758.5 66 1 16762 11007 1 11 0 32 -93.7561 41.9181 310.22
2 0 51758.6 70 1 16762 11007 1 11 0 32 -93.7561 41.9182 310.31
12 0 53290.4 7 1 16762 11008 1 14 1 32 -93.7562 41.9182 310.55
12 0 53290.5 2 1 16762 11008 1 13 1 32 -93.7561 41.9181 310.31
12 0 53290.5 2 1 16762 11008 1 14 1 32 -93.7561 41.9181 310.22
2 0 51758.4 54 1 16762 11007 1 11 0 32 -93.7561 41.9181 310.12
2 0 51758.4 47 1 16762 11007 1 11 0 32 -93.7561 41.9181 310.11
2 0 51758.5 56 1 16762 11007 1 11 0 32 -93.7561 41.9181 310.15
1 0 51758.5 54 1 16762 11007 1 11 0 32 -93.7561 41.9181 310.22
2 0 51758.5 52 1 16762 11007 1 11 0 32 -93.7561 41.9181 310.17
2 0 51758.5 4 1 16762 11007 1 11 1 32 -93.7561 41.9181 310.15
2 0 51758.5 54 1 16762 11007 1 11 0 32 -93.7561 41.9181 310.17
2 0 51758.5 7 1 16762 11007 1 11 1 32 -93.7561 41.9181 310.19
2 0 51758.6 9 1 16762 11007 1 11 1 32 -93.7561 41.9182 310.4
2 0 51758.6 11 1 16762 11007 1 11 1 32 -93.7562 41.9182 310.23
1 0 51758.6 9 1 16762 11007 1 11 1 32 -93.7561 41.9182 310.4
2 0 51758.6 11 1 16762 11007 1 11 1 32 -93.7562 41.9182 310.39
12 0 53290.4 7 1 16762 11008 1 14 1 32 -93.7562 41.9182 310.25
12 0 53290.4 10 1 16762 11008 1 14 1 32 -93.7561 41.9182 310.25
12 0 53290.4 5 1 16762 11008 1 14 1 32 -93.7561 41.9182 310.31
12 0 53290.5 10 1 16762 11008 1 14 1 32 -93.7562 41.9182 310.21
12 0 53290.5 5 1 16762 11008 1 14 1 32 -93.7561 41.9181 310.19
12 0 53290.5 79 1 16762 11008 1 14 0 32 -93.7561 41.9181 310.29
12 0 53290.6 5 1 16762 11008 1 13 1 32 -93.756 41.9181 310.27
12 0 53290.6 43 1 16762 11008 1 13 0 32 -93.756 41.9181 310.15
12 0 53290.6 46 1 16762 11008 1 14 0 32 -93.756 41.9181 310.15
12 0 53290.4 5 1 16762 11008 1 13 1 32 -93.7561 41.9182 310.31
